# xmcd CD database file
#
# Track frame offsets:
#	150
#	66883
#	104064
#	171226
#
# Disc length: 3493 seconds
#
# Revision: 1
# Processed by: cddbd v1.5.2PL0 Copyright (c) Steve Scherf et al.
# Submitted via: CDex 1.70beta3
#
DISCID=360da304
DTITLE=Julius Hemphill - Dogon A.D.
DYEAR=1972
DGENRE=Jazz
TTITLE0=Dogon A.D.
TTITLE1=Rites
TTITLE2=The Painter 
TTITLE3=The Hard Blues
EXTD=YEAR: 1972
EXTT0=
EXTT1=
EXTT2=
EXTT3=
PLAYORDER=
